<svg width="332" height="110" viewBox="0 0 332 110" fill="none" xmlns="http://www.w3.org/2000/svg">
<path d="M48.384 16.512C48.384 12.3307 48.0853 8.832 47.488 6.016C50.3893 5.67466 53.3333 5.504 56.32 5.504C57.7707 5.504 58.496 6.144 58.496 7.424V76.928C58.496 81.1947 57.0453 84.5227 54.144 86.912C51.2427 89.3013 47.2747 90.496 42.24 90.496C37.2907 90.496 33.6213 89.3013 31.232 86.912C28.8427 89.3013 25.1733 90.496 20.224 90.496C15.36 90.496 11.5627 89.3867 8.832 87.168C6.18667 84.9493 4.864 81.7067 4.864 77.44V16.896C4.864 15.104 4.48 13.8667 3.712 13.184C3.02933 12.416 1.792 12.032 0 12.032C0 7.168 2.73067 4.736 8.192 4.736C12.7147 4.736 14.976 7.68 14.976 13.568V76.928C14.976 78.5493 15.488 79.8293 16.512 80.768C17.6213 81.6213 19.0293 82.048 20.736 82.048C22.4427 82.048 23.8507 81.664 24.96 80.896C26.0693 80.0427 26.624 78.8907 26.624 77.44V16.512C26.624 12.3307 26.3253 8.832 25.728 6.016C28.6293 5.67466 31.5733 5.504 34.56 5.504C36.0107 5.504 36.736 6.144 36.736 7.424V76.928C36.736 78.5493 37.248 79.8293 38.272 80.768C39.3813 81.6213 40.7893 82.048 42.496 82.048C44.288 82.048 45.696 81.6213 46.72 80.768C47.8293 79.8293 48.384 78.5493 48.384 76.928V16.512Z" fill="white"/>
<path d="M80.14 65.792C77.324 67.6693 75.916 70.8267 75.916 75.264C75.916 79.616 77.2387 81.792 79.884 81.792C82.6147 81.792 84.748 80.256 86.284 77.184V61.696L80.14 65.792ZM81.548 25.216C91.1053 25.216 95.884 29.44 95.884 37.888V78.592C95.884 80.384 96.1827 81.664 96.78 82.432C97.4627 83.2 98.7 83.584 100.492 83.584C100.577 85.8027 99.98 87.5093 98.7 88.704C97.5053 89.8987 95.756 90.496 93.452 90.496C89.868 90.496 87.692 89.1733 86.924 86.528C84.2787 89.1733 81.164 90.496 77.58 90.496C73.996 90.496 71.1373 89.1307 69.004 86.4C66.8707 83.6693 65.804 80 65.804 75.392C65.804 68.3947 68.748 63.104 74.636 59.52L86.284 52.608V38.784C86.284 35.2 84.5773 33.408 81.164 33.408C77.836 33.408 76.172 35.4133 76.172 39.424V43.648L76.556 49.664C75.4467 49.92 74.2947 50.048 73.1 50.048C71.9907 50.048 70.924 49.8773 69.9 49.536C67.852 49.024 66.828 48.0427 66.828 46.592V36.096C66.828 32.6827 68.1507 30.0373 70.796 28.16C73.5267 26.1973 77.1107 25.216 81.548 25.216Z" fill="white"/>
<path d="M113.535 76.544C113.535 80.384 115.242 82.304 118.655 82.304C122.154 82.304 123.903 80.2133 123.903 76.032V70.784C123.903 67.6267 122.794 65.3653 120.575 64L109.311 57.216C105.983 55.168 104.319 51.712 104.319 46.848V37.888C104.319 34.1333 105.514 31.104 107.903 28.8C110.378 26.4107 113.962 25.216 118.655 25.216C123.434 25.216 127.06 26.1973 129.535 28.16C132.01 30.1227 133.247 32.8107 133.247 36.224V44.288C133.247 45.7387 132.223 46.72 130.175 47.232C129.151 47.5733 128.042 47.744 126.847 47.744C125.738 47.744 124.628 47.616 123.519 47.36C123.775 45.4827 123.903 43.4773 123.903 41.344V39.424C123.903 35.4133 122.282 33.408 119.039 33.408C115.626 33.408 113.919 35.2 113.919 38.784V44.672C113.919 47.6587 114.858 49.664 116.735 50.688L127.999 57.216C131.668 59.264 133.503 62.7627 133.503 67.712V77.312C133.503 81.408 132.266 84.6507 129.791 87.04C127.402 89.344 123.86 90.496 119.167 90.496C114.474 90.496 110.804 89.5573 108.159 87.68C105.514 85.8027 104.191 83.1147 104.191 79.616V71.168C104.191 69.7173 105.215 68.736 107.263 68.224C108.287 67.8827 109.354 67.712 110.463 67.712C111.658 67.712 112.81 67.84 113.919 68.096C113.663 69.9733 113.535 71.9787 113.535 74.112V76.544Z" fill="white"/>
<path d="M141.349 9.856C141.349 7.296 140.965 4.69333 140.197 2.048C142.757 0.682665 145.488 0 148.389 0C150.096 0 150.949 0.639999 150.949 1.92V28.544C153.594 26.3253 156.496 25.216 159.653 25.216C162.81 25.216 165.37 26.2827 167.333 28.416C169.381 30.5493 170.405 33.5787 170.405 37.504V78.592C170.405 80.384 170.704 81.664 171.301 82.432C171.984 83.2 173.221 83.584 175.013 83.584C175.098 85.8027 174.501 87.5093 173.221 88.704C172.026 89.8987 170.234 90.496 167.845 90.496C165.456 90.496 163.664 89.7707 162.469 88.32C161.36 86.8693 160.805 84.48 160.805 81.152V38.272C160.805 35.456 159.354 34.048 156.453 34.048C154.064 34.048 152.229 35.3707 150.949 38.016V78.72C150.949 82.816 151.248 86.2293 151.845 88.96C149.285 89.472 146.512 89.728 143.525 89.728C142.074 89.728 141.349 89.088 141.349 87.808V9.856Z" fill="white"/>
<path d="M200.32 36.992C200.32 32.8107 200.021 29.312 199.424 26.496C201.984 26.1547 204.757 25.984 207.744 25.984C209.195 25.984 209.92 26.624 209.92 27.904V98.304C209.92 102.144 208.555 105.045 205.824 107.008C203.179 108.971 199.595 109.952 195.072 109.952C190.549 109.952 187.051 109.099 184.576 107.392C182.101 105.685 180.864 103.339 180.864 100.352V95.616C180.864 94.1653 181.888 93.1413 183.936 92.544C184.96 92.288 186.027 92.16 187.136 92.16C188.331 92.16 189.483 92.288 190.592 92.544C190.336 94.592 190.208 96.384 190.208 97.92V98.56C190.208 100.693 191.872 101.76 195.2 101.76C198.613 101.76 200.32 100.267 200.32 97.28V84.608C198.187 86.7413 195.413 87.808 192 87.808C188.672 87.808 185.984 86.7413 183.936 84.608C181.888 82.3893 180.864 79.1893 180.864 75.008V37.12C180.864 35.328 180.523 34.048 179.84 33.28C179.243 32.512 178.048 32.128 176.256 32.128C176.171 29.9947 176.768 28.3307 178.048 27.136C179.413 25.856 181.291 25.216 183.68 25.216C186.069 25.216 187.776 25.8987 188.8 27.264C189.909 28.6293 190.464 30.8907 190.464 34.048V74.88C190.464 77.696 191.573 79.104 193.792 79.104C194.987 79.104 196.224 78.72 197.504 77.952C198.784 77.0987 199.723 76.16 200.32 75.136V36.992Z" fill="white"/>
<path d="M219.995 87.68V17.024C219.995 15.232 219.611 13.9947 218.843 13.312C218.16 12.544 216.923 12.16 215.131 12.16C215.131 7.296 217.862 4.864 223.323 4.864C227.846 4.864 230.107 7.808 230.107 13.696V47.104H242.011V18.048L241.499 6.016C244.4 5.58933 247.259 5.376 250.075 5.376C251.44 5.376 252.123 6.10133 252.123 7.552V78.336C252.123 80.128 252.464 81.408 253.147 82.176C253.915 82.8587 255.195 83.2 256.987 83.2C256.987 88.064 254.256 90.496 248.795 90.496C244.272 90.496 242.011 87.552 242.011 81.664V55.552H230.107V77.184L230.619 89.216C227.718 89.6427 224.859 89.856 222.043 89.856C220.678 89.856 219.995 89.1307 219.995 87.68Z" fill="white"/>
<path d="M282.192 36.992C282.192 33.7493 281.893 30.2507 281.296 26.496C283.856 26.1547 286.629 25.984 289.616 25.984C291.067 25.984 291.792 26.624 291.792 27.904V78.592C291.792 80.384 292.091 81.664 292.688 82.432C293.371 83.2 294.608 83.584 296.4 83.584C296.485 85.8027 295.888 87.5093 294.608 88.704C293.413 89.8987 291.664 90.496 289.36 90.496C285.947 90.496 283.771 89.1733 282.832 86.528C280.187 89.1733 277.2 90.496 273.872 90.496C270.544 90.496 267.856 89.3867 265.808 87.168C263.76 84.864 262.736 81.6213 262.736 77.44V37.12C262.736 35.328 262.395 34.048 261.712 33.28C261.115 32.512 259.92 32.128 258.128 32.128C258.043 29.9947 258.64 28.3307 259.92 27.136C261.285 25.856 263.163 25.216 265.552 25.216C267.941 25.216 269.648 25.8987 270.672 27.264C271.781 28.6293 272.336 30.8907 272.336 34.048V77.312C272.336 80.2987 273.573 81.792 276.048 81.792C277.328 81.792 278.523 81.3227 279.632 80.384C280.827 79.36 281.68 78.2933 282.192 77.184V36.992Z" fill="white"/>
<path d="M301.974 9.856C301.974 7.296 301.59 4.69333 300.822 2.048C303.382 0.682665 306.113 0 309.014 0C310.721 0 311.574 0.639999 311.574 1.92V28.544C314.219 26.3253 316.95 25.216 319.766 25.216C327.275 25.216 331.03 29.568 331.03 38.272V75.648C331.03 79.9147 329.707 83.2427 327.062 85.632C324.417 88.0213 320.833 89.216 316.31 89.216H301.974V9.856ZM311.574 81.024H316.566C318.017 81.024 319.169 80.5973 320.022 79.744C320.961 78.8053 321.43 77.6107 321.43 76.16V38.4C321.43 35.4987 320.15 34.048 317.59 34.048C315.03 34.048 313.025 35.3707 311.574 38.016V81.024Z" fill="white"/>
</svg>
